<svg width="1253" height="675" viewBox="0 0 1253 675" fill="none" xmlns="http://www.w3.org/2000/svg">
<path d="M24.3786 480C10.6266 485.28 2.39619 491.2 0 493.5V675H1253L1220.18 633.3C1215.39 625.9 1201.93 611.1 1186.43 611.1C1170.93 611.1 1160.59 591.7 1157.36 582C1149.76 577.4 1130.92 567.72 1116.42 565.8C1098.29 563.4 1054.53 535.8 1046.41 530.4C1039.91 526.08 1033.49 525.2 1031.09 525.3C1028.9 525.3 1023.84 525.12 1021.09 524.4C1018.34 523.68 1014.11 523.7 1012.34 523.8C994.211 524.1 955.393 524.82 945.141 525.3C934.89 525.78 927.951 524.5 925.763 523.8C917.429 521.5 899.135 516.72 892.634 516C886.133 515.28 881.382 512.7 879.819 511.5C874.818 506.8 863.942 496.08 860.441 490.8C856.941 485.52 851.482 484.2 849.19 484.2C846.064 484.5 838.375 484.56 832.625 482.4C826.874 480.24 817.518 480.5 813.559 480.9L761.989 483.9C759.384 483.8 754.05 483.06 753.55 480.9C753.05 478.74 750.841 478 749.8 477.9L746.987 478.5C737.235 482.1 723.546 482.8 717.92 482.7C719.17 477.66 714.482 472.4 711.982 470.4C706.981 466.8 695.729 459 690.728 456.6C684.477 453.6 679.477 453.6 673.538 453.9C668.788 454.14 667.6 453.2 667.6 452.7C659.349 447.42 653.327 446.5 651.347 446.7C647.597 447.6 637.47 449.04 626.969 447.6C616.467 446.16 614.884 447 615.405 447.6C603.403 456.24 588.317 460.2 582.275 461.1C576.961 461.5 564.147 459.72 555.396 449.4C546.644 439.08 539.872 436.7 537.58 436.8C535.184 436.8 529.142 437.58 524.141 440.7C519.14 443.82 513.931 444.4 511.952 444.3H482.26L472.571 427.5C471.216 425.2 466.882 421.38 460.381 424.5C453.88 427.62 447.88 427.8 445.692 427.5C437.461 427.4 416.125 427.74 396.622 429.9C372.243 432.6 352.865 429.9 333.487 429.9H285.355C272.603 426.78 256.497 424.6 250.037 423.9C216.532 426.3 195.446 414.3 189.091 408C172.588 411.6 160.962 424.1 157.211 429.9C126.362 467.885 82.4662 458.159 74.1483 456.316L74.0736 456.3C67.5726 454.86 63.0303 456.9 61.5717 458.1L50.6326 466.5C47.6113 468.8 38.1307 474.72 24.3786 480Z" fill="#1F033E"/>
<path d="M311.59 0.208134C291.806 2.14654 280.01 13.5717 277.819 32.9102C277.532 35.3959 277.487 37.129 277.598 40.6638C277.687 43.1723 277.842 45.7948 277.952 46.479C278.151 47.756 278.262 58.1094 278.063 58.1094C278.019 58.1094 277.598 57.8586 277.156 57.5393C275.894 56.6727 274.721 56.3991 274.057 56.8551C272.42 57.9498 272.663 59.9338 275.938 72.8185C278.66 83.5367 279.258 85.3611 280.608 86.8434C281.493 87.824 282.268 87.7556 282.887 86.6838C283.153 86.1821 283.396 85.9768 283.418 86.1593C283.441 86.3417 283.772 89.7396 284.149 93.6848C284.99 102.716 285.388 104.107 288.154 107.641C289.172 108.964 289.194 108.987 289.46 111.564C289.836 114.916 289.637 119.431 289.039 121.757C288.464 124.061 287.512 125.976 286.317 127.231C284.348 129.306 277.399 134.14 268.082 139.887C263.28 142.852 262.859 143.057 249.006 149.192C241.238 152.658 234.71 155.486 234.555 155.486C234.046 155.486 231.147 156.991 229.664 158.017C224.375 161.711 219.551 169.693 216.895 179.225C213.819 190.172 212.69 205.656 213.775 221.505C213.929 224.014 213.73 227.093 211.34 256.876L208.729 289.509L206.803 294.389C205.741 297.08 204.723 299.566 204.524 299.954C204.192 300.615 198.018 308.3 189.675 318.426C173.675 337.81 159.954 353.363 152.297 360.797C148.933 364.058 145.525 366.886 144.949 366.886C144.772 366.886 142.471 366.567 139.859 366.202C136.341 365.7 133.552 365.449 129.126 365.289L123.151 365.039L118.15 363.534L113.17 362.051L108.855 358.402C106.487 356.396 104.34 354.662 104.053 354.548C103.455 354.32 102.791 354.594 102.482 355.21C102.371 355.438 101.862 355.757 101.353 355.917C100.158 356.282 98.9407 357.422 98.4095 358.676C97.9006 359.839 97.8784 362.051 98.2546 374.161C98.4538 380.728 98.4759 380.979 99.1398 383.168C99.4939 384.423 99.8038 385.449 99.8038 385.472C99.8038 385.517 99.339 385.609 98.7636 385.677C98.1661 385.768 97.3252 385.882 96.8826 385.951L96.0637 386.087L94.1605 382.142C93.0983 379.999 91.9475 377.399 91.5934 376.373C90.841 374.297 90.3984 373.704 89.0706 373.043C87.787 372.405 87.1231 372.473 86.2158 373.294C85.1535 374.252 84.9765 375.255 85.6183 376.783C85.8838 377.422 86.7469 379.976 87.4993 382.461C88.7386 386.384 88.8714 387 88.5395 387.114C87.3666 387.478 85.9724 388.277 85.5076 388.847C84.888 389.599 84.8437 390.352 85.3306 391.401C85.8396 392.541 86.592 392.929 88.7165 393.157C89.7566 393.271 91.5713 393.613 92.7221 393.932C96.8604 395.072 117.619 401.139 117.729 401.23C117.774 401.298 115.826 403.396 113.414 405.905L108.988 410.488L105.558 412.267C102.437 413.886 102.083 414.114 101.596 415.004C101.021 416.076 100.888 417.49 101.331 418.037C101.486 418.242 101.95 418.516 102.371 418.653C103.057 418.903 103.61 418.744 108.833 416.965L114.52 415.004L119.168 411.332C121.735 409.325 126.847 405.517 130.565 402.872C134.283 400.226 137.469 397.946 137.646 397.809C137.824 397.672 137.469 398.174 136.828 398.926C131.516 405.357 129.37 413.179 130.875 420.614C131.649 424.331 133.729 429.302 136.053 432.906C139.55 438.31 144.064 442.301 150.637 445.745C152.12 446.52 153.802 447.546 154.399 448.002C154.974 448.458 156.015 449.279 156.678 449.804C160.839 453.065 165.84 454.456 173.497 454.502C205.276 454.639 222.604 454.547 228.602 454.274C262.97 452.586 288.708 448.641 312.807 441.366L316.127 440.363L324.913 439.656L333.676 438.949L337.527 440.408C352.177 445.973 369.328 450.716 383.381 453.088C393.45 454.798 400.443 455.437 409.185 455.459C420.006 455.459 427.663 454.388 435.276 451.811C438.175 450.83 438.286 450.784 441.849 448.071L445.478 445.334L449.417 444.627C451.564 444.24 453.578 443.761 453.866 443.578C454.153 443.373 457.495 440.864 461.279 437.968C466.347 434.091 468.516 432.563 469.489 432.199C476.969 429.348 482.856 424.171 486.043 417.626C488.035 413.544 488.853 410.078 489.008 404.97C489.119 401.8 489.03 400.249 488.499 396.441L488.344 395.323L490.203 396.35C491.221 396.92 494.32 398.584 497.086 400.044L502.087 402.689L502.995 401.07C503.504 400.158 503.88 399.314 503.813 399.177C503.747 399.041 501.379 396.304 498.502 393.111C495.647 389.919 493.346 387.273 493.39 387.228C493.434 387.182 493.899 387.273 494.408 387.433C494.939 387.593 496.289 387.729 497.374 387.729C500.007 387.752 501.313 387.273 502.973 385.723L504.234 384.514L512.643 384.126C517.269 383.921 521.628 383.693 522.314 383.624L523.576 383.488L524.505 382.005C525.59 380.204 526.519 378.151 527.139 376.099C527.781 373.932 527.781 368.14 527.139 366.407C526.608 364.902 525.922 364.149 525.125 364.149C524.24 364.149 523.509 365.061 522.735 367.228C521.54 370.466 519.703 374.685 519.504 374.685C517.689 374.708 511.869 374.297 511.869 374.161C511.869 374.046 513.418 372.154 515.299 369.964C517.18 367.752 518.729 365.905 518.729 365.86C518.729 365.472 518.065 364.195 517.689 363.853C517.025 363.237 515.83 363.123 514.613 363.556C514.038 363.762 513.529 363.898 513.507 363.853C513.484 363.83 512.643 359.497 511.648 354.229C510.674 348.961 509.744 344.309 509.634 343.921C509.302 342.872 508.394 342.188 507.509 342.302C507.067 342.371 506.779 342.302 506.779 342.143C506.779 341.732 506.026 341.116 505.54 341.116C504.787 341.116 504.035 341.823 499.255 347.046L494.541 352.177L490.646 353.385L486.751 354.617L484.981 354.366C480.333 353.727 478.054 353.841 476.084 354.822C475.221 355.255 474.867 355.301 473.473 355.164C471.26 354.959 469.556 354.48 467.697 353.545C466.458 352.929 465.705 352.291 463.935 350.421C461.014 347.297 455.946 341.413 448.776 332.793C445.545 328.893 439.636 321.778 435.63 316.943C431.625 312.109 426.999 306.636 425.34 304.788C423.702 302.918 422.175 301.185 421.976 300.912C421.732 300.592 420.869 297.035 419.719 291.63C415.182 270.444 412.526 254.344 411.84 244.014C411.641 241.186 411.685 239.339 411.973 234.436C412.46 226.819 412.526 208.416 412.106 203.262C411.287 193.296 410.269 186.797 408.499 180.343C405.356 168.804 400.001 160.708 393.207 157.173C392.41 156.763 389.953 155.668 387.785 154.779C377.959 150.742 368 146.25 361.848 143.08C350.739 137.333 339.519 128.622 337.261 123.947L336.597 122.578V116.193V109.831L337.815 107.938C340.647 103.559 342.683 97.4932 343.458 91.1763C343.568 90.1273 343.679 88.8274 343.679 88.3029V87.3679L345.317 86.5469C348.282 85.019 350.584 81.9176 351.867 77.6531C352.266 76.376 353.062 73.9359 353.638 72.2484C355.74 66.1367 356.426 61.8722 355.563 60.2303C355.054 59.2268 354.102 59.0672 352.531 59.6829L351.314 60.1618L350.163 58.9532L348.99 57.7673L349.433 54.2326C350.207 47.9157 350.562 43.2635 350.694 38.1324C350.849 32.4769 350.65 30.7437 349.322 25.3618C345.56 10.1738 336.332 1.73605 321.77 0.18533C319.336 -0.0655228 314.312 -0.0655228 311.59 0.208134ZM251.595 288.095L252.945 305.199L247.081 330.854C243.85 344.97 241.127 356.669 241.039 356.852C240.928 357.034 240.154 357.308 239.202 357.467C234.533 358.334 225.769 360.204 221.963 361.207C216.364 362.644 213.885 363.488 211.451 364.788L209.459 365.86L206.361 365.837C203.75 365.837 202.864 365.746 200.828 365.221C198.018 364.491 193.038 362.827 192.861 362.553C192.795 362.462 195.672 359.725 199.235 356.487C224.53 333.454 235.949 322.417 237.52 319.452C240.574 313.66 244.314 299.589 248.386 278.631C249.05 275.188 249.67 271.858 249.758 271.22C249.869 270.353 249.957 270.194 250.09 270.536C250.179 270.787 250.865 278.677 251.595 288.095ZM383.491 304.72C385.904 313.226 388.05 320.455 388.493 321.413C394.512 334.891 417.926 353.363 451.785 371.378L457.097 374.206L455.083 374.069C446.341 373.499 424.056 368.117 398.009 360.341C394.003 359.155 390.33 358.06 389.865 357.924C389.4 357.81 388.98 357.581 388.935 357.445C388.869 357.308 386.7 342.302 384.089 324.127C381.455 305.929 379.264 290.695 379.176 290.262C379.11 289.829 379.087 289.509 379.154 289.578C379.22 289.646 381.168 296.442 383.491 304.72ZM504.721 360.09C504.831 363.511 504.898 366.338 504.876 366.384C504.743 366.612 502.419 365.13 501.689 364.354C500.14 362.713 500.007 360.683 501.246 358.106C501.888 356.76 503.968 353.887 504.322 353.887C504.411 353.887 504.588 356.692 504.721 360.09ZM108.147 368.847C110.271 369.6 111.334 370.808 111.909 373.134C112.197 374.411 112.219 374.981 112.02 376.646C111.754 378.927 110.537 383.077 110.139 383.077C109.585 383.077 108.435 382.165 107.881 381.276C106.576 379.269 105.115 372.861 105.115 369.235C105.115 368.505 105.137 368.482 106.111 368.482C106.642 368.482 107.571 368.642 108.147 368.847Z" fill="#1F033E"/>
<g filter="url(#filter0_f_282_803)">
<ellipse cx="314.254" cy="38.3098" rx="22.2027" ry="22.8794" fill="#812A8B" fill-opacity="0.2"/>
</g>
<g filter="url(#filter1_b_282_803)">
<ellipse cx="314.267" cy="38.3228" rx="10.1625" ry="10.4722" fill="#812A8B"/>
</g>
<g filter="url(#filter2_f_282_803)">
<ellipse cx="314.123" cy="38.1741" rx="7.48072" ry="7.70872" fill="#D9D9D9"/>
</g>
<path d="M316.266 38.1674C316.266 39.4021 315.296 40.39 314.116 40.39C312.936 40.39 311.967 39.4021 311.967 38.1674C311.967 36.9328 312.936 35.9448 314.116 35.9448C315.296 35.9448 316.266 36.9328 316.266 38.1674Z" stroke="#812A8B" stroke-opacity="0.4" stroke-width="0.5"/>
<path d="M317.573 38.3508C317.573 40.2281 316.098 41.737 314.294 41.737C312.491 41.737 311.016 40.2281 311.016 38.3508C311.016 36.4735 312.491 34.9646 314.294 34.9646C316.098 34.9646 317.573 36.4735 317.573 38.3508Z" stroke="#812A8B" stroke-opacity="0.4" stroke-width="0.5"/>
<path d="M318.811 38.1707C318.811 40.8513 316.704 43.0114 314.121 43.0114C311.538 43.0114 309.431 40.8513 309.431 38.1707C309.431 35.4902 311.538 33.3301 314.121 33.3301C316.704 33.3301 318.811 35.4902 318.811 38.1707Z" stroke="#812A8B" stroke-opacity="0.4" stroke-width="0.5"/>
<path d="M320.363 38.3181C320.363 41.8019 317.624 44.6132 314.262 44.6132C310.899 44.6132 308.16 41.8019 308.16 38.3181C308.16 34.8343 310.899 32.0229 314.262 32.0229C317.624 32.0229 320.363 34.8343 320.363 38.3181Z" stroke="#812A8B" stroke-opacity="0.4" stroke-width="0.5"/>
<g filter="url(#filter3_f_282_803)">
<ellipse cx="314.254" cy="98.4348" rx="22.2027" ry="22.8794" fill="#046DB6" fill-opacity="0.2"/>
</g>
<g filter="url(#filter4_b_282_803)">
<ellipse cx="314.267" cy="98.4478" rx="10.1625" ry="10.4722" fill="#046DB6"/>
</g>
<g filter="url(#filter5_f_282_803)">
<ellipse cx="314.123" cy="98.2993" rx="7.48072" ry="7.70872" fill="#D9D9D9"/>
</g>
<path d="M316.266 98.2924C316.266 99.5271 315.296 100.515 314.116 100.515C312.936 100.515 311.967 99.5271 311.967 98.2924C311.967 97.0578 312.936 96.0698 314.116 96.0698C315.296 96.0698 316.266 97.0578 316.266 98.2924Z" stroke="#046DB6" stroke-opacity="0.4" stroke-width="0.5"/>
<path d="M317.573 98.4758C317.573 100.353 316.098 101.862 314.294 101.862C312.491 101.862 311.016 100.353 311.016 98.4758C311.016 96.5985 312.491 95.0896 314.294 95.0896C316.098 95.0896 317.573 96.5985 317.573 98.4758Z" stroke="#046DB6" stroke-opacity="0.4" stroke-width="0.5"/>
<path d="M318.811 98.296C318.811 100.977 316.704 103.137 314.121 103.137C311.538 103.137 309.431 100.977 309.431 98.296C309.431 95.6154 311.538 93.4553 314.121 93.4553C316.704 93.4553 318.811 95.6154 318.811 98.296Z" stroke="#046DB6" stroke-opacity="0.4" stroke-width="0.5"/>
<path d="M320.363 98.4431C320.363 101.927 317.624 104.738 314.262 104.738C310.899 104.738 308.16 101.927 308.16 98.4431C308.16 94.9593 310.899 92.1479 314.262 92.1479C317.624 92.1479 320.363 94.9593 320.363 98.4431Z" stroke="#046DB6" stroke-opacity="0.4" stroke-width="0.5"/>
<g filter="url(#filter6_f_282_803)">
<ellipse cx="314.254" cy="158.56" rx="22.2027" ry="22.8794" fill="#7AD2F6" fill-opacity="0.2"/>
</g>
<g filter="url(#filter7_b_282_803)">
<ellipse cx="314.267" cy="158.573" rx="10.1625" ry="10.4722" fill="#7AD2F6"/>
</g>
<g filter="url(#filter8_f_282_803)">
<ellipse cx="314.123" cy="158.424" rx="7.48072" ry="7.70872" fill="#D9D9D9"/>
</g>
<path d="M316.266 158.417C316.266 159.652 315.296 160.64 314.116 160.64C312.936 160.64 311.967 159.652 311.967 158.417C311.967 157.183 312.936 156.195 314.116 156.195C315.296 156.195 316.266 157.183 316.266 158.417Z" stroke="#7AD2F6" stroke-opacity="0.4" stroke-width="0.5"/>
<path d="M317.573 158.601C317.573 160.478 316.098 161.987 314.294 161.987C312.491 161.987 311.016 160.478 311.016 158.601C311.016 156.723 312.491 155.214 314.294 155.214C316.098 155.214 317.573 156.723 317.573 158.601Z" stroke="#7AD2F6" stroke-opacity="0.4" stroke-width="0.5"/>
<path d="M318.811 158.42C318.811 161.101 316.704 163.261 314.121 163.261C311.538 163.261 309.431 161.101 309.431 158.42C309.431 155.74 311.538 153.58 314.121 153.58C316.704 153.58 318.811 155.74 318.811 158.42Z" stroke="#7AD2F6" stroke-opacity="0.4" stroke-width="0.5"/>
<path d="M320.363 158.568C320.363 162.052 317.624 164.863 314.262 164.863C310.899 164.863 308.16 162.052 308.16 158.568C308.16 155.084 310.899 152.273 314.262 152.273C317.624 152.273 320.363 155.084 320.363 158.568Z" stroke="#7AD2F6" stroke-opacity="0.4" stroke-width="0.5"/>
<g filter="url(#filter9_f_282_803)">
<ellipse cx="314.254" cy="218.684" rx="22.2027" ry="22.8794" fill="#93CA5D" fill-opacity="0.2"/>
</g>
<g filter="url(#filter10_b_282_803)">
<ellipse cx="314.267" cy="218.697" rx="10.1625" ry="10.4722" fill="#93CA5D"/>
</g>
<g filter="url(#filter11_f_282_803)">
<ellipse cx="314.123" cy="218.549" rx="7.48072" ry="7.70872" fill="#D9D9D9"/>
</g>
<path d="M316.266 218.542C316.266 219.777 315.296 220.765 314.116 220.765C312.936 220.765 311.967 219.777 311.967 218.542C311.967 217.307 312.936 216.319 314.116 216.319C315.296 216.319 316.266 217.307 316.266 218.542Z" stroke="#93CA5D" stroke-opacity="0.4" stroke-width="0.5"/>
<path d="M317.573 218.725C317.573 220.603 316.098 222.111 314.294 222.111C312.491 222.111 311.016 220.603 311.016 218.725C311.016 216.848 312.491 215.339 314.294 215.339C316.098 215.339 317.573 216.848 317.573 218.725Z" stroke="#93CA5D" stroke-opacity="0.4" stroke-width="0.5"/>
<path d="M318.811 218.545C318.811 221.226 316.704 223.386 314.121 223.386C311.538 223.386 309.431 221.226 309.431 218.545C309.431 215.865 311.538 213.705 314.121 213.705C316.704 213.705 318.811 215.865 318.811 218.545Z" stroke="#93CA5D" stroke-opacity="0.4" stroke-width="0.5"/>
<path d="M320.363 218.693C320.363 222.176 317.624 224.988 314.262 224.988C310.899 224.988 308.16 222.176 308.16 218.693C308.16 215.209 310.899 212.397 314.262 212.397C317.624 212.397 320.363 215.209 320.363 218.693Z" stroke="#93CA5D" stroke-opacity="0.4" stroke-width="0.5"/>
<g filter="url(#filter12_f_282_803)">
<ellipse cx="314.254" cy="278.809" rx="22.2027" ry="22.8794" fill="#FFE231" fill-opacity="0.2"/>
</g>
<g filter="url(#filter13_b_282_803)">
<ellipse cx="314.267" cy="278.822" rx="10.1625" ry="10.4722" fill="#FFE231"/>
</g>
<g filter="url(#filter14_f_282_803)">
<ellipse cx="314.123" cy="278.674" rx="7.48072" ry="7.70872" fill="#D9D9D9"/>
</g>
<path d="M316.266 278.667C316.266 279.902 315.296 280.89 314.116 280.89C312.936 280.89 311.967 279.902 311.967 278.667C311.967 277.432 312.936 276.444 314.116 276.444C315.296 276.444 316.266 277.432 316.266 278.667Z" stroke="#FFE231" stroke-opacity="0.4" stroke-width="0.5"/>
<path d="M317.573 278.85C317.573 280.728 316.098 282.236 314.294 282.236C312.491 282.236 311.016 280.728 311.016 278.85C311.016 276.973 312.491 275.464 314.294 275.464C316.098 275.464 317.573 276.973 317.573 278.85Z" stroke="#FFE231" stroke-opacity="0.4" stroke-width="0.5"/>
<path d="M318.811 278.67C318.811 281.351 316.704 283.511 314.121 283.511C311.538 283.511 309.431 281.351 309.431 278.67C309.431 275.99 311.538 273.83 314.121 273.83C316.704 273.83 318.811 275.99 318.811 278.67Z" stroke="#FFE231" stroke-opacity="0.4" stroke-width="0.5"/>
<path d="M320.363 278.818C320.363 282.301 317.624 285.113 314.262 285.113C310.899 285.113 308.16 282.301 308.16 278.818C308.16 275.334 310.899 272.522 314.262 272.522C317.624 272.522 320.363 275.334 320.363 278.818Z" stroke="#FFE231" stroke-opacity="0.4" stroke-width="0.5"/>
<g filter="url(#filter15_f_282_803)">
<ellipse cx="314.254" cy="338.934" rx="22.2027" ry="22.8794" fill="#F79134" fill-opacity="0.2"/>
</g>
<g filter="url(#filter16_b_282_803)">
<ellipse cx="314.267" cy="338.947" rx="10.1625" ry="10.4722" fill="#F79134"/>
</g>
<g filter="url(#filter17_f_282_803)">
<ellipse cx="314.123" cy="338.799" rx="7.48072" ry="7.70872" fill="#D9D9D9"/>
</g>
<path d="M316.266 338.792C316.266 340.027 315.296 341.015 314.116 341.015C312.936 341.015 311.967 340.027 311.967 338.792C311.967 337.557 312.936 336.569 314.116 336.569C315.296 336.569 316.266 337.557 316.266 338.792Z" stroke="#F79134" stroke-opacity="0.4" stroke-width="0.5"/>
<path d="M317.573 338.975C317.573 340.853 316.098 342.361 314.294 342.361C312.491 342.361 311.016 340.853 311.016 338.975C311.016 337.098 312.491 335.589 314.294 335.589C316.098 335.589 317.573 337.098 317.573 338.975Z" stroke="#F79134" stroke-opacity="0.4" stroke-width="0.5"/>
<path d="M318.811 338.795C318.811 341.476 316.704 343.636 314.121 343.636C311.538 343.636 309.431 341.476 309.431 338.795C309.431 336.115 311.538 333.955 314.121 333.955C316.704 333.955 318.811 336.115 318.811 338.795Z" stroke="#F79134" stroke-opacity="0.4" stroke-width="0.5"/>
<path d="M320.363 338.943C320.363 342.426 317.624 345.238 314.262 345.238C310.899 345.238 308.16 342.426 308.16 338.943C308.16 335.459 310.899 332.647 314.262 332.647C317.624 332.647 320.363 335.459 320.363 338.943Z" stroke="#F79134" stroke-opacity="0.4" stroke-width="0.5"/>
<g filter="url(#filter18_f_282_803)">
<ellipse cx="314.254" cy="399.059" rx="22.2027" ry="22.8794" fill="#EAB971" fill-opacity="0.2"/>
</g>
<g filter="url(#filter19_b_282_803)">
<ellipse cx="314.267" cy="399.072" rx="10.1625" ry="10.4722" fill="#EB1D24"/>
</g>
<g filter="url(#filter20_f_282_803)">
<ellipse cx="314.123" cy="398.923" rx="7.48072" ry="7.70872" fill="#D9D9D9"/>
</g>
<path d="M316.266 398.917C316.266 400.152 315.296 401.14 314.116 401.14C312.936 401.14 311.967 400.152 311.967 398.917C311.967 397.682 312.936 396.694 314.116 396.694C315.296 396.694 316.266 397.682 316.266 398.917Z" stroke="#EA2E35" stroke-opacity="0.4" stroke-width="0.5"/>
<path d="M317.573 399.1C317.573 400.977 316.098 402.486 314.294 402.486C312.491 402.486 311.016 400.977 311.016 399.1C311.016 397.223 312.491 395.714 314.294 395.714C316.098 395.714 317.573 397.223 317.573 399.1Z" stroke="#EA2E35" stroke-opacity="0.4" stroke-width="0.5"/>
<path d="M318.811 398.92C318.811 401.601 316.704 403.761 314.121 403.761C311.538 403.761 309.431 401.601 309.431 398.92C309.431 396.24 311.538 394.08 314.121 394.08C316.704 394.08 318.811 396.24 318.811 398.92Z" stroke="#EA2E35" stroke-opacity="0.4" stroke-width="0.5"/>
<path d="M320.363 399.067C320.363 402.551 317.624 405.362 314.262 405.362C310.899 405.362 308.16 402.551 308.16 399.067C308.16 395.584 310.899 392.772 314.262 392.772C317.624 392.772 320.363 395.584 320.363 399.067Z" stroke="#EA2E35" stroke-opacity="0.4" stroke-width="0.5"/>
<defs>
<filter id="filter0_f_282_803" x="282.052" y="5.43042" width="64.4053" height="65.7588" filterUnits="userSpaceOnUse" color-interpolation-filters="sRGB">
<feFlood flood-opacity="0" result="BackgroundImageFix"/>
<feBlend mode="normal" in="SourceGraphic" in2="BackgroundImageFix" result="shape"/>
<feGaussianBlur stdDeviation="5" result="effect1_foregroundBlur_282_803"/>
</filter>
<filter id="filter1_b_282_803" x="300.104" y="23.8506" width="28.3252" height="28.9443" filterUnits="userSpaceOnUse" color-interpolation-filters="sRGB">
<feFlood flood-opacity="0" result="BackgroundImageFix"/>
<feGaussianBlur in="BackgroundImageFix" stdDeviation="2"/>
<feComposite in2="SourceAlpha" operator="in" result="effect1_backgroundBlur_282_803"/>
<feBlend mode="normal" in="SourceGraphic" in2="effect1_backgroundBlur_282_803" result="shape"/>
</filter>
<filter id="filter2_f_282_803" x="296.643" y="20.4653" width="34.9619" height="35.4175" filterUnits="userSpaceOnUse" color-interpolation-filters="sRGB">
<feFlood flood-opacity="0" result="BackgroundImageFix"/>
<feBlend mode="normal" in="SourceGraphic" in2="BackgroundImageFix" result="shape"/>
<feGaussianBlur stdDeviation="5" result="effect1_foregroundBlur_282_803"/>
</filter>
<filter id="filter3_f_282_803" x="282.052" y="65.5554" width="64.4053" height="65.7588" filterUnits="userSpaceOnUse" color-interpolation-filters="sRGB">
<feFlood flood-opacity="0" result="BackgroundImageFix"/>
<feBlend mode="normal" in="SourceGraphic" in2="BackgroundImageFix" result="shape"/>
<feGaussianBlur stdDeviation="5" result="effect1_foregroundBlur_282_803"/>
</filter>
<filter id="filter4_b_282_803" x="300.104" y="83.9756" width="28.3252" height="28.9443" filterUnits="userSpaceOnUse" color-interpolation-filters="sRGB">
<feFlood flood-opacity="0" result="BackgroundImageFix"/>
<feGaussianBlur in="BackgroundImageFix" stdDeviation="2"/>
<feComposite in2="SourceAlpha" operator="in" result="effect1_backgroundBlur_282_803"/>
<feBlend mode="normal" in="SourceGraphic" in2="effect1_backgroundBlur_282_803" result="shape"/>
</filter>
<filter id="filter5_f_282_803" x="296.643" y="80.5906" width="34.9619" height="35.4175" filterUnits="userSpaceOnUse" color-interpolation-filters="sRGB">
<feFlood flood-opacity="0" result="BackgroundImageFix"/>
<feBlend mode="normal" in="SourceGraphic" in2="BackgroundImageFix" result="shape"/>
<feGaussianBlur stdDeviation="5" result="effect1_foregroundBlur_282_803"/>
</filter>
<filter id="filter6_f_282_803" x="282.052" y="125.68" width="64.4053" height="65.7588" filterUnits="userSpaceOnUse" color-interpolation-filters="sRGB">
<feFlood flood-opacity="0" result="BackgroundImageFix"/>
<feBlend mode="normal" in="SourceGraphic" in2="BackgroundImageFix" result="shape"/>
<feGaussianBlur stdDeviation="5" result="effect1_foregroundBlur_282_803"/>
</filter>
<filter id="filter7_b_282_803" x="300.104" y="144.1" width="28.3252" height="28.9443" filterUnits="userSpaceOnUse" color-interpolation-filters="sRGB">
<feFlood flood-opacity="0" result="BackgroundImageFix"/>
<feGaussianBlur in="BackgroundImageFix" stdDeviation="2"/>
<feComposite in2="SourceAlpha" operator="in" result="effect1_backgroundBlur_282_803"/>
<feBlend mode="normal" in="SourceGraphic" in2="effect1_backgroundBlur_282_803" result="shape"/>
</filter>
<filter id="filter8_f_282_803" x="296.643" y="140.715" width="34.9619" height="35.4175" filterUnits="userSpaceOnUse" color-interpolation-filters="sRGB">
<feFlood flood-opacity="0" result="BackgroundImageFix"/>
<feBlend mode="normal" in="SourceGraphic" in2="BackgroundImageFix" result="shape"/>
<feGaussianBlur stdDeviation="5" result="effect1_foregroundBlur_282_803"/>
</filter>
<filter id="filter9_f_282_803" x="282.052" y="185.805" width="64.4053" height="65.7588" filterUnits="userSpaceOnUse" color-interpolation-filters="sRGB">
<feFlood flood-opacity="0" result="BackgroundImageFix"/>
<feBlend mode="normal" in="SourceGraphic" in2="BackgroundImageFix" result="shape"/>
<feGaussianBlur stdDeviation="5" result="effect1_foregroundBlur_282_803"/>
</filter>
<filter id="filter10_b_282_803" x="300.104" y="204.225" width="28.3252" height="28.9443" filterUnits="userSpaceOnUse" color-interpolation-filters="sRGB">
<feFlood flood-opacity="0" result="BackgroundImageFix"/>
<feGaussianBlur in="BackgroundImageFix" stdDeviation="2"/>
<feComposite in2="SourceAlpha" operator="in" result="effect1_backgroundBlur_282_803"/>
<feBlend mode="normal" in="SourceGraphic" in2="effect1_backgroundBlur_282_803" result="shape"/>
</filter>
<filter id="filter11_f_282_803" x="296.643" y="200.84" width="34.9619" height="35.4175" filterUnits="userSpaceOnUse" color-interpolation-filters="sRGB">
<feFlood flood-opacity="0" result="BackgroundImageFix"/>
<feBlend mode="normal" in="SourceGraphic" in2="BackgroundImageFix" result="shape"/>
<feGaussianBlur stdDeviation="5" result="effect1_foregroundBlur_282_803"/>
</filter>
<filter id="filter12_f_282_803" x="282.052" y="245.93" width="64.4053" height="65.7588" filterUnits="userSpaceOnUse" color-interpolation-filters="sRGB">
<feFlood flood-opacity="0" result="BackgroundImageFix"/>
<feBlend mode="normal" in="SourceGraphic" in2="BackgroundImageFix" result="shape"/>
<feGaussianBlur stdDeviation="5" result="effect1_foregroundBlur_282_803"/>
</filter>
<filter id="filter13_b_282_803" x="300.104" y="264.35" width="28.3252" height="28.9443" filterUnits="userSpaceOnUse" color-interpolation-filters="sRGB">
<feFlood flood-opacity="0" result="BackgroundImageFix"/>
<feGaussianBlur in="BackgroundImageFix" stdDeviation="2"/>
<feComposite in2="SourceAlpha" operator="in" result="effect1_backgroundBlur_282_803"/>
<feBlend mode="normal" in="SourceGraphic" in2="effect1_backgroundBlur_282_803" result="shape"/>
</filter>
<filter id="filter14_f_282_803" x="296.643" y="260.965" width="34.9619" height="35.4175" filterUnits="userSpaceOnUse" color-interpolation-filters="sRGB">
<feFlood flood-opacity="0" result="BackgroundImageFix"/>
<feBlend mode="normal" in="SourceGraphic" in2="BackgroundImageFix" result="shape"/>
<feGaussianBlur stdDeviation="5" result="effect1_foregroundBlur_282_803"/>
</filter>
<filter id="filter15_f_282_803" x="282.052" y="306.055" width="64.4053" height="65.7588" filterUnits="userSpaceOnUse" color-interpolation-filters="sRGB">
<feFlood flood-opacity="0" result="BackgroundImageFix"/>
<feBlend mode="normal" in="SourceGraphic" in2="BackgroundImageFix" result="shape"/>
<feGaussianBlur stdDeviation="5" result="effect1_foregroundBlur_282_803"/>
</filter>
<filter id="filter16_b_282_803" x="300.104" y="324.475" width="28.3252" height="28.9443" filterUnits="userSpaceOnUse" color-interpolation-filters="sRGB">
<feFlood flood-opacity="0" result="BackgroundImageFix"/>
<feGaussianBlur in="BackgroundImageFix" stdDeviation="2"/>
<feComposite in2="SourceAlpha" operator="in" result="effect1_backgroundBlur_282_803"/>
<feBlend mode="normal" in="SourceGraphic" in2="effect1_backgroundBlur_282_803" result="shape"/>
</filter>
<filter id="filter17_f_282_803" x="296.643" y="321.09" width="34.9619" height="35.4175" filterUnits="userSpaceOnUse" color-interpolation-filters="sRGB">
<feFlood flood-opacity="0" result="BackgroundImageFix"/>
<feBlend mode="normal" in="SourceGraphic" in2="BackgroundImageFix" result="shape"/>
<feGaussianBlur stdDeviation="5" result="effect1_foregroundBlur_282_803"/>
</filter>
<filter id="filter18_f_282_803" x="282.052" y="366.18" width="64.4053" height="65.7588" filterUnits="userSpaceOnUse" color-interpolation-filters="sRGB">
<feFlood flood-opacity="0" result="BackgroundImageFix"/>
<feBlend mode="normal" in="SourceGraphic" in2="BackgroundImageFix" result="shape"/>
<feGaussianBlur stdDeviation="5" result="effect1_foregroundBlur_282_803"/>
</filter>
<filter id="filter19_b_282_803" x="300.104" y="384.6" width="28.3252" height="28.9443" filterUnits="userSpaceOnUse" color-interpolation-filters="sRGB">
<feFlood flood-opacity="0" result="BackgroundImageFix"/>
<feGaussianBlur in="BackgroundImageFix" stdDeviation="2"/>
<feComposite in2="SourceAlpha" operator="in" result="effect1_backgroundBlur_282_803"/>
<feBlend mode="normal" in="SourceGraphic" in2="effect1_backgroundBlur_282_803" result="shape"/>
</filter>
<filter id="filter20_f_282_803" x="296.643" y="381.215" width="34.9619" height="35.4175" filterUnits="userSpaceOnUse" color-interpolation-filters="sRGB">
<feFlood flood-opacity="0" result="BackgroundImageFix"/>
<feBlend mode="normal" in="SourceGraphic" in2="BackgroundImageFix" result="shape"/>
<feGaussianBlur stdDeviation="5" result="effect1_foregroundBlur_282_803"/>
</filter>
</defs>
</svg>
